HIERARCHY
ROOT Hips
{
    OFFSET 0.000000 0.000000 0.000000
    CHANNELS 6 Xposition Yposition Zposition Zrotation Xrotation Yrotation
        JOINT Chest
        {
            OFFSET -0.000000 26.978363 -0.000000
            CHANNELS 3 Zrotation Xrotation Yrotation
            JOINT Neck
            {
                OFFSET -0.000000 19.720629 0.000000
                CHANNELS 3 Zrotation Xrotation Yrotation
                JOINT Head
                {
                    OFFSET -0.000000 9.655557 0.000000
                    CHANNELS 3 Zrotation Xrotation Yrotation
                    End Site
                    {
                        OFFSET -0.000000 14.922232 0.000000
                    }
                }
            }
            JOINT LeftCollar
            {
                OFFSET -0.000000 19.720629 0.000000
                CHANNELS 3 Zrotation Xrotation Yrotation
                JOINT LeftShoulder
                {
                    OFFSET 17.555553 -0.000000 0.000000
                    CHANNELS 3 Zrotation Xrotation Yrotation
                    JOINT LeftElbow
                    {
                        OFFSET 22.589397 0.000000 0.000000
                        CHANNELS 3 Zrotation Xrotation Yrotation
                        JOINT LeftWrist
                        {
                            OFFSET 20.401022 0.000000 0.000000
                            CHANNELS 3 Zrotation Xrotation Yrotation
                            End Site
                            {
                                OFFSET 0.000000 -13.166666 0.000000
                            }
                        }
                    }
                }
            }
            JOINT RightCollar
            {
                OFFSET -0.000000 19.720629 0.000000
                CHANNELS 3 Zrotation Xrotation Yrotation
                JOINT RightShoulder
                {
                    OFFSET -17.555553 0.000000 0.000000
                    CHANNELS 3 Zrotation Xrotation Yrotation
                    JOINT RightElbow
                    {
                        OFFSET -22.589397 0.000000 0.000000
                        CHANNELS 3 Zrotation Xrotation Yrotation
                        JOINT RightWrist
                        {
                            OFFSET -20.401022 0.000000 0.000000
                            CHANNELS 3 Zrotation Xrotation Yrotation
                            End Site
                            {
                                OFFSET -0.000000 -13.166666 0.000000
                            }
                        }
                    }
                }
            }
        }
    JOINT LeftHip
    {
        OFFSET 10.533332 0.000000 0.000000
        CHANNELS 3 Zrotation Xrotation Yrotation
        JOINT LeftKnee
        {
            OFFSET -0.000000 -40.048210 0.000000
            CHANNELS 3 Zrotation Xrotation Yrotation
            JOINT LeftAnkle
            {
                OFFSET -0.000000 -36.098888 0.000000
                CHANNELS 3 Zrotation Xrotation Yrotation
                End Site
                {
                    OFFSET -0.000000 -4.388888 14.922232
                }
            }
        }
    }
    JOINT RightHip
    {
        OFFSET -10.533332 0.000000 0.000000
        CHANNELS 3 Zrotation Xrotation Yrotation
        JOINT RightKnee
        {
            OFFSET -0.000000 -40.048210 0.000000
            CHANNELS 3 Zrotation Xrotation Yrotation
            JOINT RightAnkle
            {
                OFFSET -0.000000 -36.098888 0.000000
                CHANNELS 3 Zrotation Xrotation Yrotation
                End Site
                {
                    OFFSET -0.000000 -4.388888 14.922232
                }
            }
        }
    }
}
MOTION
Frames:    11
Frame Time:    0.010000
21.733074    85.721573    -2.596107    -2.430207    -2.408418    -73.103752    -1.371143    -19.297777    -14.205753    11.431146    -0.575988    18.624205    -4.989389    -33.230095    17.072435    20.043041    -3.665928    -20.580635    11.313698    -27.501284    20.682133    20.370298    -19.624447    -93.562263    165.478241    31.348419    30.404451    -1.739653    -0.039856    0.626097    -0.458591    -32.286850    -38.703369    -127.748108    -55.708664    29.271034    -88.884132    38.390549    -94.222038    -6.785711    -8.765273    6.392380    5.284623    21.671040    0.006889    0.195723    -10.256521    1.724282    -8.783837    16.768286    -4.238898    -8.079908    28.207151    -5.573645    19.185474    14.453362    4.900617    
21.429056    85.730591    -2.310256    -2.292969    -2.317050    -72.398331    -1.604678    -18.919407    -14.152852    11.553744    -1.369612    18.408176    -5.238536    -32.876289    16.718098    20.135328    -3.679328    -20.520819    10.717626    -29.314112    23.966553    17.886683    -19.391201    -100.950912    165.528473    29.178612    30.207657    -2.451622    -0.026367    0.386809    -0.397227    -34.121605    -38.471790    -127.008095    -56.352196    30.153214    -90.415192    40.473385    -92.362213    -6.890176    -8.706606    6.053704    5.313095    21.752674    -0.349032    0.165573    -10.513837    1.686919    -8.669317    16.599726    -4.177416    -8.259702    28.220415    -3.215226    17.679718    12.936423    5.720287    
21.136477    85.733620    -2.040463    -2.146141    -2.235477    -71.661812    -1.870065    -18.522678    -14.072664    11.630122    -2.153057    18.153564    -5.486284    -32.576874    16.324924    20.196430    -3.659823    -20.343935    10.237678    -31.194145    27.303686    15.268925    -18.604958    -108.379356    165.594589    27.024755    29.966976    -3.231477    -0.010175    0.140790    -0.489453    -36.039391    -38.345497    -126.000519    -57.042309    31.244009    -92.173721    42.573704    -90.262726    -6.991279    -8.661487    5.788430    5.358779    21.817183    -0.787188    0.155848    -10.746078    1.635938    -8.525581    16.455206    -4.154725    -8.430286    28.100281    -1.182526    15.776966    11.604978    6.522371    
20.854109    85.733292    -1.787689    -1.988355    -2.159199    -70.894043    -2.188676    -18.153261    -13.983174    11.709710    -2.843580    17.864010    -5.772278    -32.360374    15.891232    20.192106    -3.616076    -20.063868    9.931792    -33.079391    30.697226    12.592224    -17.179455    -115.744789    165.729324    24.814505    29.655672    -4.013950    0.009221    -0.084330    -0.788702    -37.975994    -38.364933    -124.654144    -57.792244    32.626469    -94.162613    44.715092    -87.992287    -7.089569    -8.627718    5.587578    5.425226    21.857559    -1.314539    0.176393    -10.948225    1.582061    -8.342968    16.325535    -4.130307    -8.577745    27.883677    0.347746    13.662683    10.670017    7.327431    
20.580725    85.732063    -1.552637    -1.819987    -2.083606    -70.096214    -2.584010    -17.854774    -13.906409    11.847358    -3.363175    17.545168    -6.131870    -32.250080    15.416530    20.081165    -3.539609    -19.689886    9.824944    -34.868767    34.109043    9.948974    -15.058372    -122.908768    165.927109    22.381645    29.250809    -4.730875    -0.008451    -0.252989    -1.353322    -39.821972    -38.573471    -122.942703    -58.592503    34.318535    -96.514061    46.921398    -85.365257    -7.185025    -8.602143    5.439473    5.514535    21.868517    -1.936461    0.236071    -11.116671    1.539705    -8.116988    16.199732    -4.063591    -8.685281    27.626602    1.288475    11.553782    10.248491    8.144898    
20.315241    85.732117    -1.335300    -1.642864    -2.004653    -69.270439    -3.074555    -17.657141    -13.862820    12.082458    -3.657774    17.202347    -6.580055    -32.260349    14.904176    19.824188    -3.407034    -19.223604    9.914830    -36.454395    37.473961    7.439779    -12.234755    -129.705566    166.161072    19.498508    28.712873    -5.329328    0.028856    -0.329486    -2.214950    -41.615768    -38.985931    -120.722412    -59.454525    36.466743    -99.263687    49.110645    -82.427963    -7.277627    -8.580886    5.330370    5.627182    21.846313    -2.650833    0.338012    -11.249852    1.520371    -7.848989    16.069916    -3.928409    -8.739852    27.383860    1.645402    9.648047    10.374143    8.960212    
20.056797    85.735115    -1.134986    -1.459122    -1.918732    -68.418472    -3.672949    -17.576464    -13.869671    12.430593    -3.701206    16.834854    -7.110028    -32.397888    14.356029    19.373411    -3.231634    -18.668957    10.184551    -37.704304    40.714798    5.155263    -8.760120    -135.972229    166.438416    15.921157    27.968084    -5.775445    -0.003000    -0.289201    -3.404183    -43.201542    -39.632488    -118.116096    -60.301270    38.913559    -102.754532    51.253803    -78.624458    -7.367069    -8.561029    5.245117    5.761710    21.789244    -3.445688    0.477542    -11.348005    1.528148    -7.544428    15.934576    -3.723217    -8.736516    27.190931    1.495748    8.096251    11.024639    9.735501    
19.804594    85.742096    -0.950785    -1.271251    -1.822247    -67.540421    -4.385471    -17.616457    -13.940756    12.891551    -3.485308    16.439121    -7.702592    -32.664169    13.775049    18.711323    -2.976269    -18.028057    10.523974    -38.566555    43.705544    3.156369    -4.702441    -141.566589    166.699585    11.387171    26.966446    -6.052002    -0.002028    -0.113418    -4.917527    -44.675556    -40.496742    -114.966423    -61.116932    41.833710    -106.782555    53.205597    -74.361061    -7.451431    -8.541205    5.168191    5.914404    21.698540    -4.301841    0.644075    -11.413619    1.559852    -7.209641    15.799987    -3.472707    -8.679849    27.055309    0.961555    6.993190    12.145262    10.417300    
19.557846    85.753548    -0.782109    -1.081319    -1.710960    -66.633949    -5.205673    -17.765104    -14.083009    13.441240    -3.027574    16.009226    -8.326183    -33.052521    13.164698    17.794844    -2.726269    -17.302668    10.869827    -38.916565    46.363434    1.462630    -0.199881    -146.386826    166.987411    5.657228    25.597761    -6.172585    -0.030096    0.199938    -6.756431    -45.995522    -41.594090    -111.387482    -61.842102    45.089912    -111.553139    54.863556    -69.275154    -7.526311    -8.522869    5.084368    6.079347    21.578741    -5.197087    0.823510    -11.450591    1.607418    -6.849174    15.677938    -3.219745    -8.582059    26.958372    0.185748    6.378192    13.660778    10.947989    
19.315935    85.769722    -0.628973    -0.890491    -1.579417    -65.694038    -6.110248    -17.991472    -14.291980    14.029544    -2.379808    15.538690    -8.937901    -33.543686    12.529165    16.651867    -2.408669    -16.489279    11.003922    -38.835865    48.552677    0.058198    4.645201    -150.360733    167.111572    -1.442903    23.847132    -6.185309    -0.069753    0.629122    -8.856377    -47.213886    -42.883602    -107.393074    -62.436131    48.679295    -116.835968    56.121006    -63.671799    -7.584864    -8.510844    4.978224    6.248984    21.437071    -6.109018    1.000718    -11.463622    1.660578    -6.464002    15.581744    -3.010991    -8.458747    26.864532    -0.687795    6.241763    15.481296    11.276348    
19.078653    85.791061    -0.492015    -0.698082    -1.420488    -64.713646    -7.065211    -18.251688    -14.550882    14.594763    -1.624026    15.023342    -9.490470    -34.103615    11.875034    15.296378    -2.073799    -15.582943    10.883166    -38.353546    50.293869    -1.112838    9.642817    -153.474319    167.050186    -10.008752    21.589123    -6.159998    -0.035096    1.135727    -11.125203    -48.453964    -44.319519    -103.019386    -62.873245    52.573277    -122.413155    56.880791    -57.802937    -7.618718    -8.513926    4.834404    6.415235    21.281889    -7.017630    1.161503    -11.456977    1.709482    -6.050877    15.521376    -2.881929    -8.324150    26.732101    -1.531712    6.534602    17.508018    11.369068    
